<svg width="16" height="17" viewBox="0 0 16 17" fill="none" xmlns="http://www.w3.org/2000/svg">
<path d="M16 8.73047C16 7.56687 15.3388 6.55127 14.3736 6.03847C14.6372 5.03407 14.3804 3.91727 13.5964 3.13367C13.0112 2.54807 12.24 2.25687 11.468 2.25687C11.2068 2.25687 10.9456 2.29007 10.6916 2.35687C10.1792 1.39167 9.1636 0.730469 8 0.730469C6.8364 0.730469 5.8208 1.39167 5.308 2.35687C5.0536 2.29007 4.7928 2.25687 4.5316 2.25687C3.7596 2.25687 2.9888 2.54847 2.4032 3.13367C1.6196 3.91727 1.3624 5.03367 1.626 6.03847C0.6612 6.55127 0 7.56687 0 8.73047C0 9.89407 0.6612 10.9097 1.6264 11.4225C1.3628 12.4269 1.6196 13.5437 2.4036 14.3273C2.9888 14.9125 3.76 15.2041 4.532 15.2041C4.7932 15.2041 5.0544 15.1709 5.3084 15.1041C5.8208 16.0693 6.8364 16.7305 8 16.7305C9.1636 16.7305 10.1792 16.0693 10.692 15.1041C10.9464 15.1709 11.2072 15.2041 11.4684 15.2041C12.2404 15.2041 13.0112 14.9125 13.5968 14.3273C14.3804 13.5437 14.6376 12.4273 14.374 11.4225C15.3388 10.9097 16 9.89407 16 8.73047Z" fill="#008763"/>
<path d="M6.99133 11.3968L4 8.80239L5.14101 7.81291L6.99133 9.41715L10.859 6.06348L12 7.05296L6.99133 11.3968Z" fill="white"/>
</svg>
